<mxfile host="app.diagrams.net" modified="2022-12-15T19:17:49.248Z" agent="5.0 (Macintosh; Intel Mac OS X 10_15_7) AppleWebKit/537.36 (KHTML, like Gecko) Chrome/108.0.0.0 Safari/537.36" etag="kB-R0uV61pVslJJgKPwu" version="20.7.2" type="github">
  <diagram id="E32n63HaND525av0WN95" name="Страница 1">
    <mxGraphModel dx="875" dy="543" grid="1" gridSize="10" guides="1" tooltips="1" connect="1" arrows="1" fold="1" page="1" pageScale="1" pageWidth="1169" pageHeight="1654" math="0" shadow="0">
      <root>
        <mxCell id="0" />
        <mxCell id="1" parent="0" />
        <mxCell id="zhZgtd895upeYkjsuowx-3" style="edgeStyle=orthogonalEdgeStyle;rounded=0;orthogonalLoop=1;jettySize=auto;html=1;exitX=0.528;exitY=1.033;exitDx=0;exitDy=0;exitPerimeter=0;entryX=0.5;entryY=0;entryDx=0;entryDy=0;" edge="1" parent="1" source="zhZgtd895upeYkjsuowx-1" target="zhZgtd895upeYkjsuowx-5">
          <mxGeometry relative="1" as="geometry">
            <mxPoint x="393" y="210" as="targetPoint" />
          </mxGeometry>
        </mxCell>
        <mxCell id="zhZgtd895upeYkjsuowx-1" value="Check &lt;br&gt;Notification&lt;br&gt;Permissions" style="ellipse;whiteSpace=wrap;html=1;" vertex="1" parent="1">
          <mxGeometry x="330" y="80" width="120" height="80" as="geometry" />
        </mxCell>
        <mxCell id="zhZgtd895upeYkjsuowx-6" style="edgeStyle=orthogonalEdgeStyle;rounded=0;orthogonalLoop=1;jettySize=auto;html=1;entryX=0;entryY=1;entryDx=0;entryDy=0;exitX=0;exitY=0.5;exitDx=0;exitDy=0;" edge="1" parent="1" source="zhZgtd895upeYkjsuowx-5" target="zhZgtd895upeYkjsuowx-10">
          <mxGeometry relative="1" as="geometry">
            <mxPoint x="254.94" y="660" as="targetPoint" />
            <mxPoint x="224.94" y="230" as="sourcePoint" />
            <Array as="points">
              <mxPoint x="80" y="230" />
              <mxPoint x="80" y="810" />
            </Array>
          </mxGeometry>
        </mxCell>
        <mxCell id="zhZgtd895upeYkjsuowx-7" value="yes" style="edgeLabel;html=1;align=center;verticalAlign=middle;resizable=0;points=[];" vertex="1" connectable="0" parent="zhZgtd895upeYkjsuowx-6">
          <mxGeometry x="-0.2747" relative="1" as="geometry">
            <mxPoint x="160" y="-166" as="offset" />
          </mxGeometry>
        </mxCell>
        <mxCell id="zhZgtd895upeYkjsuowx-39" value="granted" style="edgeLabel;html=1;align=center;verticalAlign=middle;resizable=0;points=[];" vertex="1" connectable="0" parent="zhZgtd895upeYkjsuowx-6">
          <mxGeometry x="0.8284" y="1" relative="1" as="geometry">
            <mxPoint x="-74" as="offset" />
          </mxGeometry>
        </mxCell>
        <mxCell id="zhZgtd895upeYkjsuowx-8" style="edgeStyle=orthogonalEdgeStyle;rounded=0;orthogonalLoop=1;jettySize=auto;html=1;exitX=0.5;exitY=1;exitDx=0;exitDy=0;" edge="1" parent="1" source="zhZgtd895upeYkjsuowx-5">
          <mxGeometry relative="1" as="geometry">
            <mxPoint x="390" y="320" as="targetPoint" />
          </mxGeometry>
        </mxCell>
        <mxCell id="zhZgtd895upeYkjsuowx-9" value="no" style="edgeLabel;html=1;align=center;verticalAlign=middle;resizable=0;points=[];" vertex="1" connectable="0" parent="zhZgtd895upeYkjsuowx-8">
          <mxGeometry x="-0.1765" y="-1" relative="1" as="geometry">
            <mxPoint as="offset" />
          </mxGeometry>
        </mxCell>
        <mxCell id="zhZgtd895upeYkjsuowx-5" value="isRegisteredForRemoteNotifications" style="rounded=0;whiteSpace=wrap;html=1;" vertex="1" parent="1">
          <mxGeometry x="275" y="200" width="230" height="60" as="geometry" />
        </mxCell>
        <mxCell id="zhZgtd895upeYkjsuowx-10" value="Finish / Try Show Next required screen&amp;nbsp;" style="shape=parallelogram;perimeter=parallelogramPerimeter;whiteSpace=wrap;html=1;fixedSize=1;" vertex="1" parent="1">
          <mxGeometry x="310" y="750" width="210" height="60" as="geometry" />
        </mxCell>
        <mxCell id="zhZgtd895upeYkjsuowx-14" style="edgeStyle=orthogonalEdgeStyle;rounded=0;orthogonalLoop=1;jettySize=auto;html=1;entryX=0;entryY=0.75;entryDx=0;entryDy=0;exitX=0;exitY=0.25;exitDx=0;exitDy=0;" edge="1" parent="1" source="zhZgtd895upeYkjsuowx-11" target="zhZgtd895upeYkjsuowx-10">
          <mxGeometry relative="1" as="geometry">
            <mxPoint x="305" y="450" as="targetPoint" />
            <mxPoint x="190" y="350" as="sourcePoint" />
            <Array as="points">
              <mxPoint x="120" y="335" />
              <mxPoint x="120" y="794" />
            </Array>
          </mxGeometry>
        </mxCell>
        <mxCell id="zhZgtd895upeYkjsuowx-15" value="Authorized" style="edgeLabel;html=1;align=center;verticalAlign=middle;resizable=0;points=[];" vertex="1" connectable="0" parent="zhZgtd895upeYkjsuowx-14">
          <mxGeometry x="-0.2629" y="2" relative="1" as="geometry">
            <mxPoint x="-2" y="-159" as="offset" />
          </mxGeometry>
        </mxCell>
        <mxCell id="zhZgtd895upeYkjsuowx-38" value="gratned" style="edgeLabel;html=1;align=center;verticalAlign=middle;resizable=0;points=[];" vertex="1" connectable="0" parent="zhZgtd895upeYkjsuowx-14">
          <mxGeometry x="0.6846" y="-3" relative="1" as="geometry">
            <mxPoint as="offset" />
          </mxGeometry>
        </mxCell>
        <mxCell id="zhZgtd895upeYkjsuowx-16" style="edgeStyle=orthogonalEdgeStyle;rounded=0;orthogonalLoop=1;jettySize=auto;html=1;exitX=0.25;exitY=1;exitDx=0;exitDy=0;entryX=0.5;entryY=0;entryDx=0;entryDy=0;" edge="1" parent="1" source="zhZgtd895upeYkjsuowx-11" target="zhZgtd895upeYkjsuowx-18">
          <mxGeometry relative="1" as="geometry">
            <mxPoint x="305" y="440" as="targetPoint" />
          </mxGeometry>
        </mxCell>
        <mxCell id="zhZgtd895upeYkjsuowx-17" value="Not Determined" style="edgeLabel;html=1;align=center;verticalAlign=middle;resizable=0;points=[];" vertex="1" connectable="0" parent="zhZgtd895upeYkjsuowx-16">
          <mxGeometry x="-0.3778" y="1" relative="1" as="geometry">
            <mxPoint as="offset" />
          </mxGeometry>
        </mxCell>
        <mxCell id="zhZgtd895upeYkjsuowx-19" style="edgeStyle=orthogonalEdgeStyle;rounded=0;orthogonalLoop=1;jettySize=auto;html=1;exitX=0;exitY=0.75;exitDx=0;exitDy=0;entryX=0;entryY=0.25;entryDx=0;entryDy=0;" edge="1" parent="1" source="zhZgtd895upeYkjsuowx-11" target="zhZgtd895upeYkjsuowx-10">
          <mxGeometry relative="1" as="geometry">
            <mxPoint x="170" y="610" as="targetPoint" />
            <Array as="points">
              <mxPoint x="170" y="365" />
              <mxPoint x="170" y="767" />
            </Array>
          </mxGeometry>
        </mxCell>
        <mxCell id="zhZgtd895upeYkjsuowx-20" value="Other statuses" style="edgeLabel;html=1;align=center;verticalAlign=middle;resizable=0;points=[];" vertex="1" connectable="0" parent="zhZgtd895upeYkjsuowx-19">
          <mxGeometry x="-0.3356" y="1" relative="1" as="geometry">
            <mxPoint y="-107" as="offset" />
          </mxGeometry>
        </mxCell>
        <mxCell id="zhZgtd895upeYkjsuowx-34" value="not granted" style="edgeLabel;html=1;align=center;verticalAlign=middle;resizable=0;points=[];" vertex="1" connectable="0" parent="zhZgtd895upeYkjsuowx-19">
          <mxGeometry x="0.5803" relative="1" as="geometry">
            <mxPoint x="63" as="offset" />
          </mxGeometry>
        </mxCell>
        <mxCell id="zhZgtd895upeYkjsuowx-35" style="edgeStyle=orthogonalEdgeStyle;rounded=0;orthogonalLoop=1;jettySize=auto;html=1;entryX=0;entryY=0.5;entryDx=0;entryDy=0;exitX=0;exitY=0.5;exitDx=0;exitDy=0;" edge="1" parent="1" source="zhZgtd895upeYkjsuowx-11" target="zhZgtd895upeYkjsuowx-10">
          <mxGeometry relative="1" as="geometry">
            <mxPoint x="140" y="780" as="targetPoint" />
            <Array as="points">
              <mxPoint x="150" y="350" />
              <mxPoint x="150" y="780" />
            </Array>
          </mxGeometry>
        </mxCell>
        <mxCell id="zhZgtd895upeYkjsuowx-36" value="Denied" style="edgeLabel;html=1;align=center;verticalAlign=middle;resizable=0;points=[];" vertex="1" connectable="0" parent="zhZgtd895upeYkjsuowx-35">
          <mxGeometry x="-0.8918" relative="1" as="geometry">
            <mxPoint as="offset" />
          </mxGeometry>
        </mxCell>
        <mxCell id="zhZgtd895upeYkjsuowx-37" value="not granted" style="edgeLabel;html=1;align=center;verticalAlign=middle;resizable=0;points=[];" vertex="1" connectable="0" parent="zhZgtd895upeYkjsuowx-35">
          <mxGeometry x="0.7077" y="-1" relative="1" as="geometry">
            <mxPoint as="offset" />
          </mxGeometry>
        </mxCell>
        <mxCell id="zhZgtd895upeYkjsuowx-11" value="UNUserNotificationCenter.current().getNotificationSettings&lt;br&gt;authorizationStatus" style="rounded=0;whiteSpace=wrap;html=1;" vertex="1" parent="1">
          <mxGeometry x="220" y="320" width="340" height="60" as="geometry" />
        </mxCell>
        <mxCell id="zhZgtd895upeYkjsuowx-23" value="Skip choice" style="edgeStyle=orthogonalEdgeStyle;rounded=0;orthogonalLoop=1;jettySize=auto;html=1;exitX=0;exitY=0.5;exitDx=0;exitDy=0;entryX=0;entryY=0;entryDx=0;entryDy=0;" edge="1" parent="1" source="zhZgtd895upeYkjsuowx-18" target="zhZgtd895upeYkjsuowx-10">
          <mxGeometry x="-0.5847" relative="1" as="geometry">
            <mxPoint x="270" y="540" as="targetPoint" />
            <Array as="points">
              <mxPoint x="220" y="450" />
              <mxPoint x="220" y="755" />
            </Array>
            <mxPoint as="offset" />
          </mxGeometry>
        </mxCell>
        <mxCell id="zhZgtd895upeYkjsuowx-40" value="not granted" style="edgeLabel;html=1;align=center;verticalAlign=middle;resizable=0;points=[];" vertex="1" connectable="0" parent="zhZgtd895upeYkjsuowx-23">
          <mxGeometry x="0.7715" relative="1" as="geometry">
            <mxPoint as="offset" />
          </mxGeometry>
        </mxCell>
        <mxCell id="zhZgtd895upeYkjsuowx-24" style="edgeStyle=orthogonalEdgeStyle;rounded=0;orthogonalLoop=1;jettySize=auto;html=1;entryX=0.5;entryY=0;entryDx=0;entryDy=0;" edge="1" parent="1" source="zhZgtd895upeYkjsuowx-18" target="zhZgtd895upeYkjsuowx-27">
          <mxGeometry relative="1" as="geometry">
            <mxPoint x="300" y="560" as="targetPoint" />
          </mxGeometry>
        </mxCell>
        <mxCell id="zhZgtd895upeYkjsuowx-26" value="Allow location" style="edgeLabel;html=1;align=center;verticalAlign=middle;resizable=0;points=[];" vertex="1" connectable="0" parent="zhZgtd895upeYkjsuowx-24">
          <mxGeometry x="-0.3875" relative="1" as="geometry">
            <mxPoint as="offset" />
          </mxGeometry>
        </mxCell>
        <mxCell id="zhZgtd895upeYkjsuowx-18" value="Show Custom Ask Permission Screen" style="rounded=0;whiteSpace=wrap;html=1;" vertex="1" parent="1">
          <mxGeometry x="240" y="420" width="120" height="60" as="geometry" />
        </mxCell>
        <mxCell id="zhZgtd895upeYkjsuowx-28" style="edgeStyle=orthogonalEdgeStyle;rounded=0;orthogonalLoop=1;jettySize=auto;html=1;entryX=0.121;entryY=-0.001;entryDx=0;entryDy=0;entryPerimeter=0;" edge="1" parent="1" source="zhZgtd895upeYkjsuowx-27" target="zhZgtd895upeYkjsuowx-10">
          <mxGeometry relative="1" as="geometry">
            <Array as="points">
              <mxPoint x="335" y="550" />
            </Array>
          </mxGeometry>
        </mxCell>
        <mxCell id="zhZgtd895upeYkjsuowx-29" value="Not granted" style="edgeLabel;html=1;align=center;verticalAlign=middle;resizable=0;points=[];" vertex="1" connectable="0" parent="zhZgtd895upeYkjsuowx-28">
          <mxGeometry x="-0.1406" y="-1" relative="1" as="geometry">
            <mxPoint as="offset" />
          </mxGeometry>
        </mxCell>
        <mxCell id="zhZgtd895upeYkjsuowx-31" style="edgeStyle=orthogonalEdgeStyle;rounded=0;orthogonalLoop=1;jettySize=auto;html=1;entryX=0.75;entryY=0;entryDx=0;entryDy=0;" edge="1" parent="1" source="zhZgtd895upeYkjsuowx-27" target="zhZgtd895upeYkjsuowx-10">
          <mxGeometry relative="1" as="geometry">
            <mxPoint x="450" y="710" as="targetPoint" />
          </mxGeometry>
        </mxCell>
        <mxCell id="zhZgtd895upeYkjsuowx-32" value="Granted" style="edgeLabel;html=1;align=center;verticalAlign=middle;resizable=0;points=[];" vertex="1" connectable="0" parent="zhZgtd895upeYkjsuowx-31">
          <mxGeometry x="-0.2512" y="2" relative="1" as="geometry">
            <mxPoint as="offset" />
          </mxGeometry>
        </mxCell>
        <mxCell id="zhZgtd895upeYkjsuowx-27" value="Ask notification permission &amp;amp; show system alert" style="rounded=0;whiteSpace=wrap;html=1;" vertex="1" parent="1">
          <mxGeometry x="400" y="520" width="120" height="60" as="geometry" />
        </mxCell>
        <mxCell id="zhZgtd895upeYkjsuowx-30" value="requestAuthorization" style="text;html=1;strokeColor=none;fillColor=none;align=center;verticalAlign=middle;whiteSpace=wrap;rounded=0;" vertex="1" parent="1">
          <mxGeometry x="555" y="530" width="60" height="30" as="geometry" />
        </mxCell>
      </root>
    </mxGraphModel>
  </diagram>
</mxfile>
